ply
format ascii 1.0
comment created by gply, a Houdini tool.
comment converted from .[b]geo
comment for more information about Houdini, try:
comment www.sidefx.com
element vertex 9
property float x
property float y
property float z
property float uv1
property float uv2
property float uv3
property float nx
property float ny
property float nz
property float customAttri1
property float customAttri2
property float customAttri3
element face 6
property list uchar int vertex_indices
end_header
-0.5 0 -0.5 0 0 0 0 1 0 1 2 3 
0 0 -0.5 0.5 0 0 0 1 0 1 2 3 
0.5 0 -0.5 1 0 0 0 1 0 1 2 3 
-0.5 0 0 0 0.5 0 0.145257637 0.978672802 -0.145257637 1 2 3 
0 0 0 0.5 0.5 0 -0.00309731439 0.992747486 -0.120178632 1 2 3 
0.5 0 0 1 0.5 0 -0.101940528 0.98955363 -0.101940528 1 2 3 
-0.5 0.310527653 0.5 0 1 0 0.284319401 0.915600896 -0.284319401 1 2 3 
0 0 0.5 0.5 1 0 -0.00786417536 0.952275932 -0.305137217 1 2 3 
0.5 0.330436528 0.5 1 1 0 -0.299362421 0.9059605 -0.299362421 1 2 3 
3 0 1 4 
3 1 2 5 
4 3 4 7 6 
4 4 5 8 7 
3 5 4 1 
3 4 3 0 
